HIERARCHY
ROOT Hips
{
	OFFSET 52.691200 -6.051634 84.093399
	CHANNELS 6 Xposition Yposition Zposition Xrotation Yrotation Zrotation
	JOINT spine
	{
		OFFSET 0.000000 -0.342408 5.954376
		CHANNELS 3 Xrotation Yrotation Zrotation
		JOINT spine1
		{
			OFFSET 0.000000 -0.000001 8.856018
			CHANNELS 3 Xrotation Yrotation Zrotation
			JOINT spine2
			{
				OFFSET 0.000000 -0.000001 8.485672
				CHANNELS 3 Xrotation Yrotation Zrotation
				JOINT Neck
				{
					OFFSET 0.000000 -1.038703 21.786301
					CHANNELS 3 Xrotation Yrotation Zrotation
					JOINT Head
					{
						OFFSET 0.000000 -0.000001 6.582199
						CHANNELS 3 Xrotation Yrotation Zrotation
						End Site
						{
							OFFSET 0.000000 5.254357 15.932602
						}
					}
				}
				JOINT RightShoulder
				{
					OFFSET -3.573071 0.497524 9.163864
					CHANNELS 3 Xrotation Yrotation Zrotation
					JOINT RightArm
					{
						OFFSET 0.000000 -0.000002 12.019196
						CHANNELS 3 Xrotation Yrotation Zrotation
						JOINT RightArmRoll
						{
							OFFSET 0.000000 -0.000001 6.067551
							CHANNELS 3 Xrotation Yrotation Zrotation
							JOINT RightForeArm
							{
								OFFSET 0.000000 -0.000003 17.672607
								CHANNELS 3 Xrotation Yrotation Zrotation
								JOINT RightForeArmRoll
								{
									OFFSET 0.000000 -0.000001 6.808716
									CHANNELS 3 Xrotation Yrotation Zrotation
									JOINT RightHand
									{
										OFFSET 0.000000 -0.000002 13.663605
										CHANNELS 3 Xrotation Yrotation Zrotation
										End Site
										{
											OFFSET 0.000000 0.000000 0.100006
										}
									}
								}
							}
						}
					}
				}
				JOINT LeftShoulder
				{
					OFFSET 3.573071 0.497524 9.163864
					CHANNELS 3 Xrotation Yrotation Zrotation
					JOINT LeftArm
					{
						OFFSET 0.000000 -0.000002 12.019196
						CHANNELS 3 Xrotation Yrotation Zrotation
						JOINT LeftArmRoll
						{
							OFFSET 0.000000 -0.000001 6.067535
							CHANNELS 3 Xrotation Yrotation Zrotation
							JOINT LeftForeArm
							{
								OFFSET 0.000000 -0.000003 17.672592
								CHANNELS 3 Xrotation Yrotation Zrotation
								JOINT LeftForeArmRoll
								{
									OFFSET 0.000000 -0.000001 6.808716
									CHANNELS 3 Xrotation Yrotation Zrotation
									JOINT LeftHand
									{
										OFFSET 0.000000 -0.000002 13.663605
										CHANNELS 3 Xrotation Yrotation Zrotation
										End Site
										{
											OFFSET 0.000000 0.000000 0.100006
										}
									}
								}
							}
						}
					}
				}
			}
		}
	}
	JOINT RightUpLeg
	{
		OFFSET -5.277740 0.811859 -0.967796
		CHANNELS 3 Xrotation Yrotation Zrotation
		JOINT RightUpLegRoll
		{
			OFFSET 0.000000 -0.000003 16.021400
			CHANNELS 3 Xrotation Yrotation Zrotation
			JOINT RightLeg
			{
				OFFSET 0.000000 0.000003 -19.840103
				CHANNELS 3 Xrotation Yrotation Zrotation
				JOINT RightLegRoll
				{
					OFFSET 0.000000 -0.000003 19.904999
					CHANNELS 3 Xrotation Yrotation Zrotation
					JOINT RightFoot
					{
						OFFSET 0.000000 -0.000003 16.567497
						CHANNELS 3 Xrotation Yrotation Zrotation
						JOINT RightToeBase
						{
							OFFSET 0.000000 -0.000002 13.849602
							CHANNELS 3 Xrotation Yrotation Zrotation
							End Site
							{
								OFFSET 0.005871 0.773116 6.707275
							}
						}
					}
				}
			}
		}
	}
	JOINT LeftUpLeg
	{
		OFFSET 5.277740 0.811859 -0.967796
		CHANNELS 3 Xrotation Yrotation Zrotation
		JOINT LeftUpLegRoll
		{
			OFFSET 0.000000 -0.000003 16.021500
			CHANNELS 3 Xrotation Yrotation Zrotation
			JOINT LeftLeg
			{
				OFFSET 0.000000 -0.000003 19.840004
				CHANNELS 3 Xrotation Yrotation Zrotation
				JOINT LeftLegRoll
				{
					OFFSET 0.000000 -0.000003 20.089005
					CHANNELS 3 Xrotation Yrotation Zrotation
					JOINT LeftFoot
					{
						OFFSET 0.000000 -0.000002 16.383499
						CHANNELS 3 Xrotation Yrotation Zrotation
						JOINT LeftToeBase
						{
							OFFSET 0.000000 -0.000002 13.849594
							CHANNELS 3 Xrotation Yrotation Zrotation
							End Site
							{
								OFFSET -0.026310 0.773116 6.707275
							}
						}
					}
				}
			}
		}
	}
}
MOTION
Frames: 4
Frame Time: 0.041667
52.588406 -3.925051 84.339294 1.921772 -7.124343 72.806436 -0.776292 0.536247 0.059623 2.449738 1.060670 0.123236 4.094945 1.062052 0.113435 3.339305 18.051891 -0.627398 2.465426 -21.062297 -2.101576 6.696944 -58.291068 8.020031 141.337309 -30.094070 96.919305 0.000003 0.000000 -0.000001 39.348149 3.400382 -3.514096 0.000006 0.000005 -2.999999 -4.999734 -7.999872 0.000018 -27.743762 72.805329 31.995806 80.823527 45.842310 -86.081421 0.000015 -0.000002 0.000012 -0.035407 -3.643620 1.990739 -0.000011 0.000002 3.011608 -5.000174 7.999929 0.000022 -1.104632 -170.649708 6.784946 -179.999991 0.000005 -1.071993 165.709118 -1.895514 -0.745738 -0.000000 -0.000001 0.282319 71.194798 6.870939 2.022126 25.456957 -7.355622 0.000014 -0.476408 -177.018108 1.684737 -0.000004 -0.000004 -1.012361 -6.730102 3.082443 0.362364 -0.000001 -0.000000 -0.057027 68.265104 -6.914906 -2.128981 25.456851 7.355610 0.000007 
52.593502 -3.914062 84.325493 1.945007 -7.146683 72.862771 -0.780382 0.537048 0.059621 2.441560 1.063104 0.123232 4.086765 1.064477 0.113427 3.462228 18.030668 -0.652074 2.396302 -20.982433 -2.123787 6.676697 -58.370564 7.983271 141.063801 -30.338549 96.929311 -0.000001 0.000001 0.000002 39.666785 3.394030 -3.524952 0.000006 0.000001 -3.000000 -4.999733 -7.999874 0.000016 -27.760068 72.785173 32.014842 81.028406 46.002963 -86.211850 0.000018 -0.000004 0.000013 -0.035411 -3.643601 1.990739 -0.000011 0.000001 3.011609 -5.000171 7.999927 0.000021 -1.064973 -170.613604 6.818180 -179.999991 0.000006 -1.070994 165.707698 -1.911004 -0.746742 0.000001 -0.000001 0.282684 71.212522 6.870941 2.021832 25.456953 -7.355624 0.000015 -0.448491 -177.002085 1.689192 -0.000005 -0.000004 -1.012361 -6.725837 3.087387 0.361606 -0.000001 -0.000000 -0.057027 68.266989 -6.914904 -2.128564 25.456851 7.355611 0.000006 
52.610603 -3.923086 84.332298 1.967850 -7.169303 72.918191 -0.784448 0.537844 0.059618 2.433430 1.065548 0.123231 4.078628 1.066922 0.113429 3.587322 18.011030 -0.677256 2.324754 -20.904866 -2.146654 6.657936 -58.451195 7.948003 140.792042 -30.583497 96.940158 0.000001 0.000002 0.000003 39.985208 3.387687 -3.535876 0.000007 0.000002 -3.000000 -4.999736 -7.999870 0.000017 -27.778794 72.765420 32.036528 81.232007 46.162790 -86.341651 0.000013 -0.000004 0.000013 -0.035411 -3.643579 1.990738 -0.000010 0.000000 3.011610 -5.000171 7.999928 0.000019 -1.025565 -170.578469 6.851052 -179.999991 0.000006 -1.070993 165.705471 -1.925535 -0.747514 0.000000 -0.000001 0.283125 71.230684 6.870933 2.021413 25.456957 -7.355631 0.000016 -0.420106 -176.985078 1.693465 -0.000005 -0.000004 -1.012368 -6.721743 3.092577 0.360838 -0.000001 0.000000 -0.057032 68.269202 -6.914887 -2.128223 25.456849 7.355613 0.000006 
52.604202 -3.913315 84.323891 1.990375 -7.192101 72.972990 -0.788491 0.538637 0.059619 2.425340 1.068003 0.123230 4.070540 1.069386 0.113423 3.713931 17.992682 -0.702778 2.251521 -20.828892 -2.169911 6.640164 -58.532556 7.913738 140.521457 -30.828749 96.951591 -0.000004 0.000002 -0.000000 40.303433 3.381350 -3.546870 0.000008 0.000001 -3.000000 -4.999735 -7.999869 0.000018 -27.799328 72.746064 32.060170 81.434932 46.321899 -86.471117 0.000014 -0.000002 0.000011 -0.035410 -3.643559 1.990738 -0.000013 0.000003 3.011609 -5.000171 7.999927 0.000020 -0.986345 -170.542379 6.883620 -179.999991 0.000005 -1.069999 165.702643 -1.939066 -0.748055 0.000000 -0.000000 0.283617 71.248961 6.871011 2.020997 25.456959 -7.355623 0.000014 -0.391388 -176.968070 1.697600 -0.000005 -0.000004 -1.012369 -6.717780 3.097916 0.360056 -0.000001 -0.000000 -0.057036 68.271730 -6.914897 -2.127666 25.456851 7.355613 0.000007 
